<svg width="58" height="67" viewBox="0 0 58 67" fill="none" xmlns="http://www.w3.org/2000/svg">
<path d="M29.2256 33.2063L29.1503 33.2314L21.4795 37.6631L18.6297 39.3203L10.9589 43.752L8.10908 45.3966L0.425781 49.8032L3.46395 51.5608H3.4765L8.10908 54.2349H8.12163L10.9589 52.6154L18.6297 48.1837L21.4795 46.5265L29.1503 42.1074L36.9089 37.638L29.2381 33.2189H29.2256V33.2063Z" fill="url(#paint0_linear_2655_37232)"/>
<path d="M36.9092 28.7746L44.5548 33.2063H44.5674L47.4172 31.5366L39.7716 27.1174L36.9092 28.7746Z" fill="url(#paint1_linear_2655_37232)"/>
<path d="M57.8875 25.4353V16.6724L50.2921 21.0413L47.4297 22.6985L55.1004 27.1302H55.113L57.8875 25.5232L57.9754 25.4856L57.8875 25.4479V25.4353Z" fill="url(#paint2_linear_2655_37232)"/>
<path d="M29.1625 45.3968L21.4917 49.8285L18.6419 51.4857L11.0088 55.8923L18.6419 60.3114V60.3365H18.667L21.4917 58.6794L29.1625 54.2477L47.4291 43.702L39.7835 39.2703L29.175 45.3968H29.1625Z" fill="url(#paint3_linear_2655_37232)"/>
<path d="M57.8875 37.5628V28.7998L50.2921 33.1813L47.4297 34.8259L55.1004 39.2576H55.113L57.8875 37.6507L57.9754 37.613L57.8875 37.5753V37.5628Z" fill="url(#paint4_linear_2655_37232)"/>
<path d="M57.8873 28.7246L55.1128 27.1301H55.1003L47.4295 22.6984L29.1629 12.1527L21.4921 7.72104L18.6925 6.10152L18.6548 6.07642V6.13919L11.0469 10.5458L18.6548 14.9524L21.5047 16.597L29.1754 21.0287L39.7839 27.1553L47.4295 31.5744L50.2919 33.2441L57.9752 37.6507V28.825L57.8873 28.7622V28.7246Z" fill="url(#paint5_linear_2655_37232)"/>
<path d="M29.1624 66.3751L21.5293 61.9434L29.1624 57.5242L50.2914 45.3464L57.8868 49.7154L57.9622 49.753L29.1624 66.3625V66.3751Z" fill="url(#paint6_linear_2655_37232)"/>
<path d="M47.4294 34.8509L44.5795 33.2063H44.5669L36.9213 28.7746L29.1627 24.2927L21.492 19.8735L18.6421 18.2289L10.9714 13.7972L8.14663 12.1777L8.12152 12.1526V12.1903L3.46384 14.8769L1.98242 17.4505L8.12152 20.9909L10.9714 22.6481L18.6421 27.0798L21.492 28.7244L29.1627 33.1561L29.238 33.2189H29.2506L36.9213 37.638L39.7837 39.2826L47.4294 43.7144L50.2918 45.3715L57.9374 49.8032V40.9398L47.4294 34.8761V34.8509Z" fill="url(#paint7_linear_2655_37232)"/>
<path d="M57.8871 16.6722V25.4352L50.2917 21.0537L29.1627 8.85085L21.5547 4.46937L29.1627 0.062772V0L57.8871 16.6722Z" fill="url(#paint8_linear_2655_37232)"/>
<path d="M8.13447 12.203V54.2351L3.50189 51.561H3.48934L0.451172 49.8034V16.6221L3.47678 14.8771L8.13447 12.1904V12.203Z" fill="url(#paint9_linear_2655_37232)"/>
<path d="M18.6426 6.12657V60.2988L11.0095 55.8797H10.9844V10.4955L11.0471 10.5206L18.6551 6.11401L18.6426 6.12657Z" fill="url(#paint10_linear_2655_37232)"/>
<path d="M29.1631 0.0627441V66.3625L21.53 61.9434H21.5049V4.40657L21.5677 4.44423L29.1631 0.0627441Z" fill="url(#paint11_linear_2655_37232)"/>
<defs>
<linearGradient id="paint0_linear_2655_37232" x1="0.45089" y1="43.7269" x2="36.9089" y2="43.7269" gradientUnits="userSpaceOnUse">
<stop stop-color="#F69C22"/>
<stop offset="1" stop-color="#A76916"/>
</linearGradient>
<linearGradient id="paint1_linear_2655_37232" x1="36.9092" y1="30.1682" x2="47.4298" y2="30.1682" gradientUnits="userSpaceOnUse">
<stop stop-color="#1F1F1F"/>
<stop offset="1" stop-color="#F69C22"/>
</linearGradient>
<linearGradient id="paint2_linear_2655_37232" x1="47.4297" y1="21.895" x2="57.9754" y2="21.895" gradientUnits="userSpaceOnUse">
<stop stop-color="#1F1F1F"/>
<stop offset="1" stop-color="#F69C22"/>
</linearGradient>
<linearGradient id="paint3_linear_2655_37232" x1="11.0088" y1="49.7909" x2="47.4291" y2="49.7909" gradientUnits="userSpaceOnUse">
<stop stop-color="#F69C22"/>
<stop offset="1" stop-color="#A76916"/>
</linearGradient>
<linearGradient id="paint4_linear_2655_37232" x1="47.4297" y1="34.035" x2="57.9754" y2="34.035" gradientUnits="userSpaceOnUse">
<stop stop-color="#1F1F1F"/>
<stop offset="1" stop-color="#F69C22"/>
</linearGradient>
<linearGradient id="paint5_linear_2655_37232" x1="60.1095" y1="33.9974" x2="16.2444" y2="9.54143" gradientUnits="userSpaceOnUse">
<stop stop-color="#F69C22"/>
<stop offset="1" stop-color="#A76916"/>
</linearGradient>
<linearGradient id="paint6_linear_2655_37232" x1="21.5167" y1="55.867" x2="57.9496" y2="55.867" gradientUnits="userSpaceOnUse">
<stop stop-color="#F69C22"/>
<stop offset="1" stop-color="#A76916"/>
</linearGradient>
<linearGradient id="paint7_linear_2655_37232" x1="55.8534" y1="45.2585" x2="8.38517" y2="15.7808" gradientUnits="userSpaceOnUse">
<stop stop-color="#F69C22"/>
<stop offset="1" stop-color="#A76916"/>
</linearGradient>
<linearGradient id="paint8_linear_2655_37232" x1="60.4733" y1="22.9243" x2="26.6769" y2="2.79963" gradientUnits="userSpaceOnUse">
<stop stop-color="#F69C22"/>
<stop offset="1" stop-color="#A76916"/>
</linearGradient>
<linearGradient id="paint9_linear_2655_37232" x1="4.29282" y1="54.2226" x2="4.29282" y2="12.1904" gradientUnits="userSpaceOnUse">
<stop stop-color="#FF9400"/>
<stop offset="1" stop-color="#F69E26"/>
</linearGradient>
<linearGradient id="paint10_linear_2655_37232" x1="14.8135" y1="60.2863" x2="14.8135" y2="6.12657" gradientUnits="userSpaceOnUse">
<stop stop-color="#FF9400"/>
<stop offset="1" stop-color="#F69E26"/>
</linearGradient>
<linearGradient id="paint11_linear_2655_37232" x1="25.3214" y1="66.3625" x2="25.3214" y2="0.0501909" gradientUnits="userSpaceOnUse">
<stop stop-color="#FF9400"/>
<stop offset="1" stop-color="#F69E26"/>
</linearGradient>
</defs>
</svg>
