<svg width="15" height="16" viewBox="0 0 15 16" fill="none" xmlns="http://www.w3.org/2000/svg">
<path d="M7.49992 2.34326L1.84326 7.99992L7.49992 13.6566L13.1566 7.99992L7.49992 2.34326ZM7.97126 0.928589L14.5713 7.52859C14.6962 7.65361 14.7664 7.82315 14.7664 7.99992C14.7664 8.1767 14.6962 8.34624 14.5713 8.47126L7.97126 15.0713C7.84624 15.1962 7.6767 15.2664 7.49992 15.2664C7.32315 15.2664 7.15361 15.1962 7.02859 15.0713L0.428589 8.47126C0.303609 8.34624 0.233398 8.1767 0.233398 7.99992C0.233398 7.82315 0.303609 7.65361 0.428589 7.52859L7.02859 0.928589C7.15361 0.803609 7.32315 0.733398 7.49992 0.733398C7.6767 0.733398 7.84624 0.803609 7.97126 0.928589ZM8.16659 6.66659V4.99992L10.4999 7.33326L8.16659 9.66659V7.99992H6.16659V9.99992H4.83326V7.33326C4.83326 7.15644 4.90349 6.98688 5.02852 6.86185C5.15354 6.73683 5.32311 6.66659 5.49992 6.66659H8.16659Z" fill="#494D4E"/>
</svg>
