<svg width="16" height="16" viewBox="0 0 16 16" fill="none" xmlns="http://www.w3.org/2000/svg">
<path d="M13 1.7002H11.3V1.0002V0.700195H11H9.99995H9.69995V1.0002V1.7002H6.29995V1.0002V0.700195H5.99995H4.99995H4.69995V1.0002V1.7002H2.99995C2.29995 1.7002 1.69995 2.3002 1.69995 3.0002V13.0002C1.69995 13.7002 2.19995 14.3002 2.99995 14.3002H13C13.7 14.3002 14.3 13.8002 14.3 13.0002V3.0002C14.3 2.3002 13.7 1.7002 13 1.7002ZM12.7 6.3002V12.8002H3.29995V6.3002H12.7ZM4.99995 4.3002H5.99995H6.29995V4.0002V3.3002H9.79995V4.0002V4.3002H9.99995H11H11.3V4.0002V3.3002H12.8V4.8002H3.29995V3.3002H4.79995V4.0002V4.3002H4.99995Z" fill="#878787"/>
</svg>
