<svg width="165" height="144" viewBox="0 0 165 144" fill="none" xmlns="http://www.w3.org/2000/svg">
<path d="M31.5205 24.4588L38.8157 9.41686C39.7387 7.51366 41.3453 6.08524 43.3395 5.39399C44.1847 5.101 45.0567 4.95575 45.9252 4.95575C47.106 4.95575 48.281 5.2247 49.3741 5.7582L87.6985 24.4588H98.9868L51.5346 1.30429C48.451 -0.200344 44.9682 -0.410249 41.727 0.712679C38.4862 1.83561 35.875 4.15737 34.3749 7.25034L26.0288 24.4591H31.5202L31.5205 24.4588Z" fill="#D9D9D9"/>
<path d="M13.4463 88.4549L10.0662 86.8057C8.16881 85.8798 6.74472 84.2684 6.05557 82.268C5.36673 80.2677 5.49565 78.118 6.41868 76.2148L13.4466 61.7245V50.4019L1.97795 74.048C0.477886 77.141 0.268306 80.6344 1.38814 83.8854C2.50766 87.1364 4.82238 89.7552 7.90598 91.2599L13.4463 93.9633V88.4552V88.4549Z" fill="#D9D9D9"/>
<path d="M133.331 119.541L126.036 134.583C124.131 138.511 119.394 140.152 115.478 138.241L77.1531 119.541H65.8647L113.318 142.695C115.094 143.562 117.003 143.999 118.923 143.999C120.334 143.999 121.752 143.763 123.125 143.287C126.366 142.164 128.977 139.842 130.477 136.749L138.823 119.54H133.332L133.331 119.541Z" fill="#D9D9D9"/>
<path d="M156.945 52.7396L151.405 50.0361V55.5443L154.785 57.1935C158.702 59.1048 160.338 63.8555 158.433 67.7843L151.405 82.2746V93.5973L162.873 69.9508C165.969 63.5662 163.31 55.8451 156.945 52.7393L156.945 52.7396Z" fill="#D9D9D9"/>
<path d="M141.037 122.017H23.8145C16.7362 122.017 10.9775 116.241 10.9775 109.141V34.858C10.9775 27.7581 16.7362 21.9817 23.8145 21.9817H141.037C148.116 21.9817 153.874 27.7578 153.874 34.858V109.141C153.874 116.241 148.116 122.017 141.037 122.017V122.017ZM23.8145 26.9351C19.4591 26.9351 15.9156 30.4894 15.9156 34.858V109.141C15.9156 113.51 19.4591 117.064 23.8145 117.064H141.037C145.393 117.064 148.936 113.51 148.936 109.141V34.858C148.936 30.4894 145.393 26.9351 141.037 26.9351H23.8145Z" fill="#D9D9D9"/>
<path d="M64.6934 93.3467H31.8703C28.967 93.3467 26.605 90.9775 26.605 88.0654V85.5606C26.605 79.7529 28.8599 74.2929 32.954 70.186C37.0482 66.0794 42.4919 63.8176 48.282 63.8176C54.0721 63.8176 59.5155 66.0791 63.61 70.186C67.7041 74.2926 69.959 79.7529 69.959 85.5606V88.0654C69.959 90.9775 67.597 93.3467 64.6937 93.3467H64.6934ZM48.282 68.771C39.0521 68.771 31.5433 76.3029 31.5433 85.5606V88.0654C31.5433 88.2462 31.69 88.3937 31.8706 88.3937H64.6937C64.8743 88.3937 65.021 88.2465 65.021 88.0654V85.5606C65.021 76.3026 57.5119 68.771 48.2823 68.771H48.282Z" fill="#D9D9D9"/>
<path d="M48.2819 68.7706C40.4288 68.7706 34.0396 62.362 34.0396 54.4849C34.0396 46.6079 40.4288 40.1992 48.2819 40.1992C56.1351 40.1992 62.5243 46.6079 62.5243 54.4849C62.5243 62.362 56.1351 68.7706 48.2819 68.7706ZM48.2819 45.1523C43.1514 45.1523 38.9776 49.3388 38.9776 54.4849C38.9776 59.631 43.1514 63.8176 48.2819 63.8176C53.4124 63.8176 57.5863 59.631 57.5863 54.4849C57.5863 49.3388 53.4124 45.1523 48.2819 45.1523Z" fill="#D9D9D9"/>
<path d="M134.911 45.1524H82.4257C81.0621 45.1524 79.9565 44.0435 79.9565 42.6757C79.9565 41.3078 81.0621 40.199 82.4257 40.199H134.911C136.275 40.199 137.38 41.3078 137.38 42.6757C137.38 44.0435 136.275 45.1524 134.911 45.1524Z" fill="#D9D9D9"/>
<path d="M134.911 60.1126H82.4257C81.0621 60.1126 79.9565 59.0037 79.9565 57.6359C79.9565 56.2681 81.0621 55.1592 82.4257 55.1592H134.911C136.275 55.1592 137.38 56.2681 137.38 57.6359C137.38 59.0037 136.275 60.1126 134.911 60.1126Z" fill="#D9D9D9"/>
<path d="M134.911 75.0718H82.4257C81.0621 75.0718 79.9565 73.9629 79.9565 72.5951C79.9565 71.2273 81.0621 70.1184 82.4257 70.1184H134.911C136.275 70.1184 137.38 71.2273 137.38 72.5951C137.38 73.9629 136.275 75.0718 134.911 75.0718Z" fill="#D9D9D9"/>
<path d="M134.911 90.0313H82.4257C81.0621 90.0313 79.9565 88.9224 79.9565 87.5546C79.9565 86.1868 81.0621 85.0779 82.4257 85.0779H134.911C136.275 85.0779 137.38 86.1868 137.38 87.5546C137.38 88.9224 136.275 90.0313 134.911 90.0313Z" fill="#D9D9D9"/>
<path d="M134.911 104.991H29.0742C27.7105 104.991 26.605 103.883 26.605 102.515C26.605 101.147 27.7105 100.038 29.0742 100.038H134.912C136.275 100.038 137.381 101.147 137.381 102.515C137.381 103.883 136.275 104.991 134.912 104.991H134.911Z" fill="#D9D9D9"/>
</svg>
