<svg width="343" height="166" viewBox="0 0 343 166" fill="none" xmlns="http://www.w3.org/2000/svg">
<path d="M244.532 103.064C247.035 103.064 249.064 101.035 249.064 98.5321C249.064 96.0291 247.035 94 244.532 94C242.029 94 240 96.0291 240 98.5321C240 101.035 242.029 103.064 244.532 103.064Z" fill="#6B95E8"/>
<path d="M123.352 99.0845L120.728 104.357C119.309 102.939 117.012 102.223 113.861 102.223C110.873 102.223 108.412 103.479 106.504 105.989C104.595 108.5 103.629 111.677 103.629 115.518C103.629 119.36 104.52 122.411 106.29 124.67C108.06 126.93 110.433 128.06 113.383 128.06C116.773 128.06 119.41 126.855 121.33 124.432L124.293 129.579C121.695 132.341 117.891 133.722 112.869 133.722C107.847 133.722 103.955 132.065 101.168 128.763C98.381 125.461 97 120.954 97 115.255C97 109.944 98.5442 105.5 101.62 101.922C104.696 98.3438 108.65 96.561 113.446 96.561C117.564 96.561 120.866 97.4022 123.327 99.0845H123.352Z" fill="#091C21"/>
<path d="M127.369 119.912C127.369 115.907 128.524 112.643 130.834 110.132C133.144 107.622 136.195 106.354 139.986 106.354C143.979 106.354 147.067 107.559 149.277 109.982C151.486 112.405 152.591 115.707 152.591 119.912C152.591 124.118 151.461 127.42 149.214 129.893C146.967 132.366 143.891 133.597 139.986 133.597C136.082 133.597 132.893 132.354 130.683 129.855C128.474 127.357 127.357 124.043 127.357 119.912H127.369ZM133.747 119.912C133.747 125.7 135.831 128.587 139.999 128.587C141.907 128.587 143.426 127.834 144.544 126.328C145.661 124.821 146.226 122.687 146.226 119.9C146.226 114.2 144.154 111.338 139.999 111.338C138.091 111.338 136.571 112.091 135.442 113.597C134.312 115.104 133.747 117.201 133.747 119.9V119.912Z" fill="#091C21"/>
<path d="M174.423 133.119V130.91C173.557 131.651 172.364 132.278 170.845 132.793C169.326 133.308 167.932 133.571 166.652 133.571C160.55 133.571 157.5 130.332 157.5 123.867V106.831H163.626V123.402C163.626 126.767 165.133 128.449 168.158 128.449C169.552 128.449 170.845 128.085 172.038 127.37C173.23 126.654 174.021 125.813 174.41 124.871V106.831H180.537V133.119H174.41H174.423Z" fill="#091C21"/>
<path d="M191.51 131.651L190.141 133.584H186.689V97.0507L192.815 95.5818V107.847C194.447 106.856 196.23 106.353 198.163 106.353C202.005 106.353 205.106 107.571 207.454 109.994C209.801 112.417 210.981 115.531 210.981 119.322C210.981 123.716 209.801 127.194 207.429 129.755C205.056 132.316 201.842 133.597 197.787 133.597C195.351 133.597 193.255 132.956 191.51 131.663V131.651ZM192.815 113.083V126.792C193.719 127.859 194.937 128.386 196.469 128.386C199.431 128.386 201.528 127.683 202.758 126.277C203.989 124.871 204.604 122.624 204.604 119.536C204.604 114.2 202.055 111.538 196.958 111.538C195.138 111.538 193.757 112.053 192.815 113.083Z" fill="#091C21"/>
<path d="M239.819 121.846H221.063C221.176 123.942 221.891 125.562 223.222 126.729C224.553 127.897 226.323 128.474 228.57 128.474C231.37 128.474 233.491 127.746 234.948 126.29L237.321 130.973C235.161 132.718 231.947 133.597 227.654 133.597C223.649 133.597 220.485 132.429 218.15 130.081C215.815 127.734 214.66 124.457 214.66 120.264C214.66 116.071 215.94 112.781 218.501 110.208C221.063 107.634 224.126 106.354 227.704 106.354C231.508 106.354 234.571 107.496 236.869 109.756C239.166 112.016 240.321 114.916 240.321 118.431C240.321 119.184 240.145 120.314 239.806 121.833L239.819 121.846ZM221.276 117.238H234.169C233.743 113.397 231.621 111.476 227.792 111.476C224.289 111.476 222.117 113.397 221.263 117.238H221.276Z" fill="#091C21"/>
<path d="M172.226 52.2063L172.151 52.2314L164.48 56.6631L161.63 58.3203L153.959 62.752L151.109 64.3966L143.426 68.8032L146.464 70.5608H146.477L151.109 73.2349H151.122L153.959 71.6154L161.63 67.1837L164.48 65.5265L172.151 61.1074L179.909 56.638L172.239 52.2189H172.226V52.2063Z" fill="url(#paint0_linear_1296_14009)"/>
<path d="M179.909 47.7746L187.555 52.2063H187.567L190.417 50.5366L182.772 46.1174L179.909 47.7746Z" fill="url(#paint1_linear_1296_14009)"/>
<path d="M200.888 44.4353V35.6724L193.292 40.0413L190.43 41.6985L198.101 46.1302H198.113L200.888 44.5232L200.976 44.4856L200.888 44.4479V44.4353Z" fill="url(#paint2_linear_1296_14009)"/>
<path d="M172.163 64.3968L164.492 68.8285L161.643 70.4857L154.01 74.8923L161.643 79.3114V79.3365H161.668L164.492 77.6794L172.163 73.2477L190.43 62.702L182.784 58.2703L172.176 64.3968H172.163Z" fill="url(#paint3_linear_1296_14009)"/>
<path d="M200.888 56.5628V47.7998L193.292 52.1813L190.43 53.8259L198.101 58.2576H198.113L200.888 56.6507L200.976 56.613L200.888 56.5753V56.5628Z" fill="url(#paint4_linear_1296_14009)"/>
<path d="M200.888 47.7246L198.113 46.1301H198.101L190.43 41.6984L172.163 31.1527L164.492 26.721L161.693 25.1015L161.655 25.0764V25.1392L154.047 29.5458L161.655 33.9524L164.505 35.597L172.176 40.0287L182.784 46.1553L190.43 50.5744L193.292 52.2441L200.976 56.6507V47.825L200.888 47.7622V47.7246Z" fill="url(#paint5_linear_1296_14009)"/>
<path d="M172.163 85.3751L164.53 80.9434L172.163 76.5242L193.292 64.3464L200.888 68.7154L200.963 68.753L172.163 85.3625V85.3751Z" fill="url(#paint6_linear_1296_14009)"/>
<path d="M190.43 53.8509L187.58 52.2063H187.567L179.922 47.7746L172.163 43.2927L164.492 38.8735L161.643 37.2289L153.972 32.7972L151.147 31.1777L151.122 31.1526V31.1903L146.464 33.8769L144.983 36.4505L151.122 39.9909L153.972 41.6481L161.643 46.0798L164.492 47.7244L172.163 52.1561L172.239 52.2189H172.251L179.922 56.638L182.784 58.2826L190.43 62.7144L193.292 64.3715L200.938 68.8032V59.9398L190.43 53.8761V53.8509Z" fill="url(#paint7_linear_1296_14009)"/>
<path d="M200.888 35.6722V44.4352L193.292 40.0537L172.163 27.8509L164.555 23.4694L172.163 19.0628V19L200.888 35.6722Z" fill="url(#paint8_linear_1296_14009)"/>
<path d="M151.135 31.203V73.2351L146.502 70.561H146.489L143.451 68.8034V35.6221L146.477 33.8771L151.135 31.1904V31.203Z" fill="url(#paint9_linear_1296_14009)"/>
<path d="M161.643 25.1266V79.2988L154.009 74.8797H153.984V29.4955L154.047 29.5206L161.655 25.114L161.643 25.1266Z" fill="url(#paint10_linear_1296_14009)"/>
<path d="M172.163 19.0627V85.3625L164.53 80.9434H164.505V23.4066L164.568 23.4442L172.163 19.0627Z" fill="url(#paint11_linear_1296_14009)"/>
<defs>
<linearGradient id="paint0_linear_1296_14009" x1="143.451" y1="62.7269" x2="179.909" y2="62.7269" gradientUnits="userSpaceOnUse">
<stop stop-color="#F69C22"/>
<stop offset="1" stop-color="#A76916"/>
</linearGradient>
<linearGradient id="paint1_linear_1296_14009" x1="179.909" y1="49.1682" x2="190.43" y2="49.1682" gradientUnits="userSpaceOnUse">
<stop stop-color="#1F1F1F"/>
<stop offset="1" stop-color="#F69C22"/>
</linearGradient>
<linearGradient id="paint2_linear_1296_14009" x1="190.43" y1="40.895" x2="200.976" y2="40.895" gradientUnits="userSpaceOnUse">
<stop stop-color="#1F1F1F"/>
<stop offset="1" stop-color="#F69C22"/>
</linearGradient>
<linearGradient id="paint3_linear_1296_14009" x1="154.01" y1="68.7909" x2="190.43" y2="68.7909" gradientUnits="userSpaceOnUse">
<stop stop-color="#F69C22"/>
<stop offset="1" stop-color="#A76916"/>
</linearGradient>
<linearGradient id="paint4_linear_1296_14009" x1="190.43" y1="53.035" x2="200.976" y2="53.035" gradientUnits="userSpaceOnUse">
<stop stop-color="#1F1F1F"/>
<stop offset="1" stop-color="#F69C22"/>
</linearGradient>
<linearGradient id="paint5_linear_1296_14009" x1="203.11" y1="52.9974" x2="159.245" y2="28.5414" gradientUnits="userSpaceOnUse">
<stop stop-color="#F69C22"/>
<stop offset="1" stop-color="#A76916"/>
</linearGradient>
<linearGradient id="paint6_linear_1296_14009" x1="164.518" y1="74.867" x2="200.95" y2="74.867" gradientUnits="userSpaceOnUse">
<stop stop-color="#F69C22"/>
<stop offset="1" stop-color="#A76916"/>
</linearGradient>
<linearGradient id="paint7_linear_1296_14009" x1="198.854" y1="64.2585" x2="151.386" y2="34.7808" gradientUnits="userSpaceOnUse">
<stop stop-color="#F69C22"/>
<stop offset="1" stop-color="#A76916"/>
</linearGradient>
<linearGradient id="paint8_linear_1296_14009" x1="203.474" y1="41.9243" x2="169.677" y2="21.7996" gradientUnits="userSpaceOnUse">
<stop stop-color="#F69C22"/>
<stop offset="1" stop-color="#A76916"/>
</linearGradient>
<linearGradient id="paint9_linear_1296_14009" x1="147.293" y1="73.2226" x2="147.293" y2="31.1904" gradientUnits="userSpaceOnUse">
<stop stop-color="#FF9400"/>
<stop offset="1" stop-color="#F69E26"/>
</linearGradient>
<linearGradient id="paint10_linear_1296_14009" x1="157.813" y1="79.2863" x2="157.813" y2="25.1266" gradientUnits="userSpaceOnUse">
<stop stop-color="#FF9400"/>
<stop offset="1" stop-color="#F69E26"/>
</linearGradient>
<linearGradient id="paint11_linear_1296_14009" x1="168.322" y1="85.3625" x2="168.322" y2="19.0502" gradientUnits="userSpaceOnUse">
<stop stop-color="#FF9400"/>
<stop offset="1" stop-color="#F69E26"/>
</linearGradient>
</defs>
</svg>
