<svg width="18" height="18" viewBox="0 0 18 18" fill="none" xmlns="http://www.w3.org/2000/svg">
<path fill-rule="evenodd" clip-rule="evenodd" d="M14.625 7.75C14.6257 9.35054 14.0613 10.8999 13.0312 12.125L17.75 16.8687L16.8687 17.75L12.125 13.0312C10.8999 14.0613 9.35054 14.6257 7.75 14.625C3.95304 14.625 0.875 11.547 0.875 7.75C0.875 3.95304 3.95304 0.875 7.75 0.875C11.547 0.875 14.625 3.95304 14.625 7.75ZM2.12451 7.75024C2.12451 10.8568 4.64291 13.3752 7.74951 13.3752C10.8561 13.3752 13.3745 10.8568 13.3745 7.75024C13.3745 4.64364 10.8561 2.12524 7.74951 2.12524C4.64291 2.12524 2.12451 4.64364 2.12451 7.75024Z" fill="#494D4E"/>
</svg>
