<svg width="12" height="15" viewBox="0 0 12 15" fill="none" xmlns="http://www.w3.org/2000/svg">
<path fill-rule="evenodd" clip-rule="evenodd" d="M0.496094 5.35547C0.537241 2.35842 2.99901 -0.0384547 5.99609 0.000467399C8.99317 -0.0384547 11.4549 2.35842 11.4961 5.35547C11.4948 6.51925 11.108 7.64983 10.3961 8.57047L5.99609 15.0005L1.59609 8.57047C0.884179 7.64983 0.497358 6.51925 0.496094 5.35547ZM10.4961 5.35547C10.4496 2.91305 8.43873 0.967012 5.99609 1.00047C3.55346 0.967012 1.54263 2.91305 1.49609 5.35547C1.49537 6.31655 1.82157 7.2493 2.42109 8.00047L5.99609 13.2305L9.60109 7.96047C10.1814 7.21612 10.4964 6.29927 10.4961 5.35547ZM6.00009 4C6.82852 4 7.50009 4.67157 7.50009 5.5C7.50009 6.32843 6.82852 7 6.00009 7C5.17167 7 4.50009 6.32843 4.50009 5.5C4.50009 4.67157 5.17167 4 6.00009 4ZM3.50009 5.5C3.50009 4.11929 4.61938 3 6.00009 3C7.38081 3 8.50009 4.11929 8.50009 5.5C8.50009 6.88071 7.38081 8 6.00009 8C4.61938 8 3.50009 6.88071 3.50009 5.5Z" fill="#494D4E"/>
</svg>
