<svg width="90" height="90" viewBox="0 0 90 90" fill="none" xmlns="http://www.w3.org/2000/svg">
<circle cx="45" cy="45" r="45" fill="#D9D9D9"/>
<g clip-path="url(#clip0_1697_23913)">
<path d="M25.5405 69.3242C25.5405 64.1633 27.5907 59.2137 31.2401 55.5643C34.8894 51.915 39.839 49.8648 45 49.8648C50.161 49.8648 55.1105 51.915 58.7599 55.5643C62.4093 59.2137 64.4594 64.1633 64.4594 69.3242H59.5946C59.5946 65.4535 58.0569 61.7413 55.3199 59.0043C52.5829 56.2673 48.8707 54.7296 45 54.7296C41.1293 54.7296 37.4171 56.2673 34.6801 59.0043C31.943 61.7413 30.4054 65.4535 30.4054 69.3242H25.5405ZM45 47.4324C36.9365 47.4324 30.4054 40.9013 30.4054 32.8378C30.4054 24.7742 36.9365 18.2432 45 18.2432C53.0635 18.2432 59.5946 24.7742 59.5946 32.8378C59.5946 40.9013 53.0635 47.4324 45 47.4324ZM45 42.5675C50.3757 42.5675 54.7297 38.2134 54.7297 32.8378C54.7297 27.4621 50.3757 23.108 45 23.108C39.6243 23.108 35.2703 27.4621 35.2703 32.8378C35.2703 38.2134 39.6243 42.5675 45 42.5675Z" fill="#F5F5F5"/>
</g>
<defs>
<clipPath id="clip0_1697_23913">
<rect width="58.3784" height="58.3784" fill="white" transform="translate(15.8108 15.8105)"/>
</clipPath>
</defs>
</svg>
