<svg width="36" height="36" viewBox="0 0 36 36" fill="none" xmlns="http://www.w3.org/2000/svg">
<circle cx="18" cy="18" r="18" fill="#D9D9D9"/>
<g clip-path="url(#clip0_1690_23708)">
<path d="M10.2162 27.7298C10.2162 25.6654 11.0363 23.6856 12.496 22.2258C13.9557 20.7661 15.9356 19.946 18 19.946C20.0644 19.946 22.0442 20.7661 23.5039 22.2258C24.9637 23.6856 25.7838 25.6654 25.7838 27.7298H23.8378C23.8378 26.1815 23.2228 24.6966 22.1279 23.6018C21.0331 22.507 19.5483 21.892 18 21.892C16.4517 21.892 14.9668 22.507 13.872 23.6018C12.7772 24.6966 12.1621 26.1815 12.1621 27.7298H10.2162ZM18 18.973C14.7746 18.973 12.1621 16.3606 12.1621 13.1352C12.1621 9.9098 14.7746 7.29736 18 7.29736C21.2254 7.29736 23.8378 9.9098 23.8378 13.1352C23.8378 16.3606 21.2254 18.973 18 18.973ZM18 17.0271C20.1502 17.0271 21.8919 15.2855 21.8919 13.1352C21.8919 10.9849 20.1502 9.24331 18 9.24331C15.8497 9.24331 14.1081 10.9849 14.1081 13.1352C14.1081 15.2855 15.8497 17.0271 18 17.0271Z" fill="#F5F5F5"/>
</g>
<defs>
<clipPath id="clip0_1690_23708">
<rect width="23.3514" height="23.3514" fill="white" transform="translate(6.32434 6.32422)"/>
</clipPath>
</defs>
</svg>
