<svg width="16" height="16" viewBox="0 0 16 16" fill="none" xmlns="http://www.w3.org/2000/svg">
<path fill-rule="evenodd" clip-rule="evenodd" d="M12.5 7C12.5006 8.28043 12.049 9.51995 11.225 10.5L15 14.295L14.295 15L10.5 11.225C9.51995 12.049 8.28043 12.5006 7 12.5C3.96243 12.5 1.5 10.0376 1.5 7C1.5 3.96243 3.96243 1.5 7 1.5C10.0376 1.5 12.5 3.96243 12.5 7ZM2.5 7C2.5 9.48528 4.51472 11.5 7 11.5C9.48528 11.5 11.5 9.48528 11.5 7C11.5 4.51472 9.48528 2.5 7 2.5C4.51472 2.5 2.5 4.51472 2.5 7Z" fill="#494D4E"/>
</svg>
