<svg width="121" height="110" viewBox="0 0 121 110" fill="none" xmlns="http://www.w3.org/2000/svg">
<path d="M104.5 0C108.876 0 113.073 1.73839 116.167 4.83274C119.262 7.92709 121 12.1239 121 16.5V27.5H110V93.5C110 97.8761 108.262 102.073 105.167 105.167C102.073 108.262 97.8761 110 93.5 110H16.5C12.1239 110 7.92709 108.262 4.83274 105.167C1.73839 102.073 0 97.8761 0 93.5V82.5H88V93.5C88.0002 94.8471 88.4948 96.1474 89.3899 97.154C90.2851 98.1607 91.5186 98.8039 92.8565 98.9615L93.5 99C94.8471 98.9998 96.1474 98.5052 97.154 97.6101C98.1607 96.7149 98.8039 95.4814 98.9615 94.1435L99 93.5V11H27.5C26.1529 11.0002 24.8526 11.4948 23.846 12.3899C22.8393 13.2851 22.1961 14.5186 22.0385 15.8565L22 16.5V71.5H11V16.5C11 12.1239 12.7384 7.92709 15.8327 4.83274C18.9271 1.73839 23.1239 0 27.5 0H104.5Z" fill="currentColor"/>
</svg>
