<svg width="68" height="68" viewBox="0 0 68 68" fill="none" xmlns="http://www.w3.org/2000/svg">
<path d="M17.7509 10.7868L21.0008 15.4307C17.0516 18.1953 14.0867 22.1471 12.5368 26.7119C10.987 31.2766 10.9328 36.2166 12.3822 40.8143C13.8316 45.412 16.7091 49.4278 20.5966 52.2784C24.4842 55.129 29.1794 56.666 34.0001 56.666C38.8208 56.666 43.516 55.129 47.4035 52.2784C51.2911 49.4278 54.1686 45.412 55.618 40.8143C57.0674 36.2166 57.0132 31.2766 55.4633 26.7119C53.9134 22.1471 50.9486 18.1953 46.9994 15.4307L50.2493 10.7868C53.9834 13.3975 57.032 16.8713 59.1359 20.9128C61.2398 24.9543 62.3367 29.444 62.3334 34.0003C62.3334 49.6488 49.6486 62.3337 34.0001 62.3337C18.3516 62.3337 5.66676 49.6488 5.66676 34.0003C5.66347 29.444 6.76039 24.9543 8.86426 20.9128C10.9681 16.8713 14.0167 13.3975 17.7509 10.7868ZM31.1668 34.0003V5.66699H36.8334V34.0003H31.1668Z" fill="white"/>
</svg>
