<svg width="80" height="80" viewBox="0 0 80 80" fill="none" xmlns="http://www.w3.org/2000/svg">
<rect x="1" y="1" width="78" height="78" rx="7" stroke="#FAB54D" stroke-width="2" stroke-dasharray="2 2"/>
<path fill-rule="evenodd" clip-rule="evenodd" d="M31.25 25C31.25 20.1675 35.1675 16.25 40 16.25C44.8325 16.25 48.75 20.1675 48.75 25C48.75 29.8325 44.8325 33.75 40 33.75C35.1675 33.75 31.25 29.8325 31.25 25ZM40 17.5C44.1421 17.5 47.5 20.8579 47.5 25C47.5 29.1421 44.1421 32.5 40 32.5C35.8579 32.5 32.5 29.1421 32.5 25C32.5 20.8579 35.8579 17.5 40 17.5ZM43.75 24.375H40.625V21.25H39.375V24.375H36.25V25.625H39.375V28.75H40.625V25.625H43.75V24.375Z" fill="#FAB54D"/>
<path d="M15.4258 43.9043H14.4121V43.1836H15.3848C15.8145 43.1836 16.1621 43.123 16.4277 43.002C16.6934 42.8809 16.8867 42.7129 17.0078 42.498C17.1289 42.2832 17.1895 42.0352 17.1895 41.7539C17.1895 41.4844 17.123 41.2383 16.9902 41.0156C16.8574 40.7891 16.6523 40.6094 16.375 40.4766C16.0977 40.3398 15.7402 40.2715 15.3027 40.2715C14.9746 40.2715 14.6777 40.334 14.4121 40.459C14.1465 40.5801 13.9355 40.75 13.7793 40.9688C13.623 41.1836 13.5449 41.4316 13.5449 41.7129H12.4141C12.4141 41.3496 12.4902 41.0234 12.6426 40.7344C12.7949 40.4414 13.0039 40.1934 13.2695 39.9902C13.5352 39.7832 13.8418 39.625 14.1895 39.5156C14.541 39.4062 14.9121 39.3516 15.3027 39.3516C15.7598 39.3516 16.1738 39.4043 16.5449 39.5098C16.916 39.6113 17.2344 39.7637 17.5 39.9668C17.7656 40.1699 17.9688 40.4219 18.1094 40.7227C18.25 41.0234 18.3203 41.373 18.3203 41.7715C18.3203 42.0645 18.252 42.3398 18.1152 42.5977C17.9785 42.8555 17.7832 43.082 17.5293 43.2773C17.2754 43.4727 16.9707 43.627 16.6152 43.7402C16.2598 43.8496 15.8633 43.9043 15.4258 43.9043ZM14.4121 43.4062H15.4258C15.9062 43.4062 16.334 43.4551 16.709 43.5527C17.084 43.6504 17.4004 43.793 17.6582 43.9805C17.916 44.168 18.1113 44.4004 18.2441 44.6777C18.3809 44.9512 18.4492 45.2656 18.4492 45.6211C18.4492 46.0195 18.3711 46.373 18.2148 46.6816C18.0625 46.9902 17.8457 47.252 17.5645 47.4668C17.2832 47.6816 16.9492 47.8438 16.5625 47.9531C16.1797 48.0625 15.7598 48.1172 15.3027 48.1172C14.9355 48.1172 14.5723 48.0703 14.2129 47.9766C13.8574 47.8789 13.5352 47.7305 13.2461 47.5312C12.957 47.3281 12.7246 47.0703 12.5488 46.7578C12.377 46.4453 12.291 46.0703 12.291 45.6328H13.4219C13.4219 45.918 13.5 46.1797 13.6562 46.418C13.8164 46.6562 14.0371 46.8477 14.3184 46.9922C14.5996 47.1328 14.9277 47.2031 15.3027 47.2031C15.7324 47.2031 16.0957 47.1367 16.3926 47.0039C16.6934 46.8672 16.9219 46.6816 17.0781 46.4473C17.2383 46.209 17.3184 45.9414 17.3184 45.6445C17.3184 45.3828 17.2754 45.1562 17.1895 44.9648C17.1074 44.7695 16.9844 44.6094 16.8203 44.4844C16.6602 44.3594 16.459 44.2676 16.2168 44.209C15.9785 44.1465 15.7012 44.1152 15.3848 44.1152H14.4121V43.4062ZM23.5117 46.916V43.6523C23.5117 43.4023 23.4609 43.1855 23.3594 43.002C23.2617 42.8145 23.1133 42.6699 22.9141 42.5684C22.7148 42.4668 22.4688 42.416 22.1758 42.416C21.9023 42.416 21.6621 42.4629 21.4551 42.5566C21.252 42.6504 21.0918 42.7734 20.9746 42.9258C20.8613 43.0781 20.8047 43.2422 20.8047 43.418H19.7207C19.7207 43.1914 19.7793 42.9668 19.8965 42.7441C20.0137 42.5215 20.1816 42.3203 20.4004 42.1406C20.623 41.957 20.8887 41.8125 21.1973 41.707C21.5098 41.5977 21.8574 41.543 22.2402 41.543C22.7012 41.543 23.1074 41.6211 23.459 41.7773C23.8145 41.9336 24.0918 42.1699 24.291 42.4863C24.4941 42.7988 24.5957 43.1914 24.5957 43.6641V46.6172C24.5957 46.8281 24.6133 47.0527 24.6484 47.291C24.6875 47.5293 24.7441 47.7344 24.8184 47.9062V48H23.6875C23.6328 47.875 23.5898 47.709 23.5586 47.502C23.5273 47.291 23.5117 47.0957 23.5117 46.916ZM23.6992 44.1562L23.7109 44.918H22.6152C22.3066 44.918 22.0312 44.9434 21.7891 44.9941C21.5469 45.041 21.3438 45.1133 21.1797 45.2109C21.0156 45.3086 20.8906 45.4316 20.8047 45.5801C20.7188 45.7246 20.6758 45.8945 20.6758 46.0898C20.6758 46.2891 20.7207 46.4707 20.8105 46.6348C20.9004 46.7988 21.0352 46.9297 21.2148 47.0273C21.3984 47.1211 21.623 47.168 21.8887 47.168C22.2207 47.168 22.5137 47.0977 22.7676 46.957C23.0215 46.8164 23.2227 46.6445 23.3711 46.4414C23.5234 46.2383 23.6055 46.041 23.6172 45.8496L24.0801 46.3711C24.0527 46.5352 23.9785 46.7168 23.8574 46.916C23.7363 47.1152 23.5742 47.3066 23.3711 47.4902C23.1719 47.6699 22.9336 47.8203 22.6562 47.9414C22.3828 48.0586 22.0742 48.1172 21.7305 48.1172C21.3008 48.1172 20.9238 48.0332 20.5996 47.8652C20.2793 47.6973 20.0293 47.4727 19.8496 47.1914C19.6738 46.9062 19.5859 46.5879 19.5859 46.2363C19.5859 45.8965 19.6523 45.5977 19.7852 45.3398C19.918 45.0781 20.1094 44.8613 20.3594 44.6895C20.6094 44.5137 20.9102 44.3809 21.2617 44.291C21.6133 44.2012 22.0059 44.1562 22.4395 44.1562H23.6992ZM30.3965 41.6602V42.5566H27.4668V48H26.3828V41.6602H30.3965ZM32.4238 42.8789V50.4375H31.334V41.6602H32.3301L32.4238 42.8789ZM36.6953 44.7773V44.9004C36.6953 45.3613 36.6406 45.7891 36.5312 46.1836C36.4219 46.5742 36.2617 46.9141 36.0508 47.2031C35.8438 47.4922 35.5879 47.7168 35.2832 47.877C34.9785 48.0371 34.6289 48.1172 34.2344 48.1172C33.832 48.1172 33.4766 48.0508 33.168 47.918C32.8594 47.7852 32.5977 47.5918 32.3828 47.3379C32.168 47.084 31.9961 46.7793 31.8672 46.4238C31.7422 46.0684 31.6562 45.668 31.6094 45.2227V44.5664C31.6562 44.0977 31.7441 43.6777 31.873 43.3066C32.002 42.9355 32.1719 42.6191 32.3828 42.3574C32.5977 42.0918 32.8574 41.8906 33.1621 41.7539C33.4668 41.6133 33.8184 41.543 34.2168 41.543C34.6152 41.543 34.9688 41.6211 35.2773 41.7773C35.5859 41.9297 35.8457 42.1484 36.0566 42.4336C36.2676 42.7188 36.4258 43.0605 36.5312 43.459C36.6406 43.8535 36.6953 44.293 36.6953 44.7773ZM35.6055 44.9004V44.7773C35.6055 44.4609 35.5723 44.1641 35.5059 43.8867C35.4395 43.6055 35.3359 43.3594 35.1953 43.1484C35.0586 42.9336 34.8828 42.7656 34.668 42.6445C34.4531 42.5195 34.1973 42.457 33.9004 42.457C33.627 42.457 33.3887 42.5039 33.1855 42.5977C32.9863 42.6914 32.8164 42.8184 32.6758 42.9785C32.5352 43.1348 32.4199 43.3145 32.3301 43.5176C32.2441 43.7168 32.1797 43.9238 32.1367 44.1387V45.6562C32.2148 45.9297 32.3242 46.1875 32.4648 46.4297C32.6055 46.668 32.793 46.8613 33.0273 47.0098C33.2617 47.1543 33.5566 47.2266 33.9121 47.2266C34.2051 47.2266 34.457 47.166 34.668 47.0449C34.8828 46.9199 35.0586 46.75 35.1953 46.5352C35.3359 46.3203 35.4395 46.0742 35.5059 45.7969C35.5723 45.5156 35.6055 45.2168 35.6055 44.9004ZM39.7891 47.3438L41.5527 41.6602H42.7129L40.1699 48.9785C40.1113 49.1348 40.0332 49.3027 39.9355 49.4824C39.8418 49.666 39.7207 49.8398 39.5723 50.0039C39.4238 50.168 39.2441 50.3008 39.0332 50.4023C38.8262 50.5078 38.5781 50.5605 38.2891 50.5605C38.2031 50.5605 38.0938 50.5488 37.9609 50.5254C37.8281 50.502 37.7344 50.4824 37.6797 50.4668L37.6738 49.5879C37.7051 49.5918 37.7539 49.5957 37.8203 49.5996C37.8906 49.6074 37.9395 49.6113 37.9668 49.6113C38.2129 49.6113 38.4219 49.5781 38.5938 49.5117C38.7656 49.4492 38.9102 49.3418 39.0273 49.1895C39.1484 49.041 39.252 48.8359 39.3379 48.5742L39.7891 47.3438ZM38.4941 41.6602L40.1406 46.582L40.4219 47.7246L39.6426 48.123L37.3105 41.6602H38.4941ZM46.0586 44.9707H44.8926V44.3027H45.9707C46.2715 44.3027 46.5098 44.2656 46.6855 44.1914C46.8613 44.1133 46.9863 44.0059 47.0605 43.8691C47.1348 43.7324 47.1719 43.5723 47.1719 43.3887C47.1719 43.2246 47.1289 43.0703 47.043 42.9258C46.9609 42.7773 46.8281 42.6582 46.6445 42.5684C46.4609 42.4746 46.2148 42.4277 45.9062 42.4277C45.6562 42.4277 45.4297 42.4727 45.2266 42.5625C45.0234 42.6484 44.8613 42.7676 44.7402 42.9199C44.623 43.0684 44.5645 43.2363 44.5645 43.4238H43.4805C43.4805 43.0371 43.5898 42.7051 43.8086 42.4277C44.0312 42.1465 44.3262 41.9297 44.6934 41.7773C45.0645 41.625 45.4688 41.5488 45.9062 41.5488C46.2734 41.5488 46.6016 41.5898 46.8906 41.6719C47.1836 41.75 47.4316 41.8672 47.6348 42.0234C47.8379 42.1758 47.9922 42.3672 48.0977 42.5977C48.207 42.8242 48.2617 43.0879 48.2617 43.3887C48.2617 43.6035 48.2109 43.8066 48.1094 43.998C48.0078 44.1895 47.8613 44.3594 47.6699 44.5078C47.4785 44.6523 47.2461 44.7656 46.9727 44.8477C46.7031 44.9297 46.3984 44.9707 46.0586 44.9707ZM44.8926 44.5605H46.0586C46.4375 44.5605 46.7715 44.5977 47.0605 44.6719C47.3496 44.7422 47.5918 44.8477 47.7871 44.9883C47.9824 45.1289 48.1289 45.3027 48.2266 45.5098C48.3281 45.7129 48.3789 45.9473 48.3789 46.2129C48.3789 46.5098 48.3184 46.7773 48.1973 47.0156C48.0801 47.25 47.9121 47.4492 47.6934 47.6133C47.4746 47.7773 47.2129 47.9023 46.9082 47.9883C46.6074 48.0742 46.2734 48.1172 45.9062 48.1172C45.4961 48.1172 45.0977 48.0469 44.7109 47.9062C44.3242 47.7656 44.0059 47.5488 43.7559 47.2559C43.5059 46.959 43.3809 46.582 43.3809 46.125H44.4648C44.4648 46.3164 44.5254 46.498 44.6465 46.6699C44.7676 46.8418 44.9355 46.9805 45.1504 47.0859C45.3691 47.1914 45.6211 47.2441 45.9062 47.2441C46.2109 47.2441 46.4648 47.1973 46.668 47.1035C46.8711 47.0098 47.0234 46.8848 47.125 46.7285C47.2305 46.5723 47.2832 46.4023 47.2832 46.2188C47.2832 45.9805 47.2363 45.7891 47.1426 45.6445C47.0488 45.5 46.9043 45.3945 46.709 45.3281C46.5176 45.2578 46.2715 45.2227 45.9707 45.2227H44.8926V44.5605ZM50.957 46.2832L53.8809 41.6602H54.9707V48H53.8809V43.377L50.957 48H49.8789V41.6602H50.957V46.2832ZM59.2949 41.6602V48H58.2051V41.6602H59.2949ZM61.4219 41.6602V42.5391H56.1191V41.6602H61.4219ZM63.3789 43.8398H65.2832C65.7949 43.8398 66.2266 43.9297 66.5781 44.1094C66.9297 44.2852 67.1953 44.5293 67.375 44.8418C67.5586 45.1504 67.6504 45.502 67.6504 45.8965C67.6504 46.1895 67.5996 46.4648 67.498 46.7227C67.3965 46.9766 67.2441 47.1992 67.041 47.3906C66.8418 47.582 66.5938 47.7324 66.2969 47.8418C66.0039 47.9473 65.666 48 65.2832 48H62.5879V41.6602H63.6719V47.1094H65.2832C65.5957 47.1094 65.8457 47.0527 66.0332 46.9395C66.2207 46.8262 66.3555 46.6797 66.4375 46.5C66.5195 46.3203 66.5605 46.1328 66.5605 45.9375C66.5605 45.7461 66.5195 45.5586 66.4375 45.375C66.3555 45.1914 66.2207 45.0391 66.0332 44.918C65.8457 44.793 65.5957 44.7305 65.2832 44.7305H63.3789V43.8398ZM22.5391 55.6602V56.5566H19.4746V55.6602H22.5391ZM23.4941 55.6602V62H22.4102V55.6602H23.4941ZM19.2109 55.6602H20.3008L20.1367 58.7188C20.1094 59.1914 20.0645 59.6094 20.002 59.9727C19.9434 60.332 19.8613 60.6406 19.7559 60.8984C19.6543 61.1562 19.5254 61.3672 19.3691 61.5312C19.2168 61.6914 19.0332 61.8105 18.8184 61.8887C18.6035 61.9629 18.3555 62 18.0742 62H17.7344V61.0449L17.9688 61.0273C18.1367 61.0156 18.2793 60.9766 18.3965 60.9102C18.5176 60.8438 18.6191 60.7461 18.7012 60.6172C18.7832 60.4844 18.8496 60.3145 18.9004 60.1074C18.9551 59.9004 18.9961 59.6543 19.0234 59.3691C19.0547 59.084 19.0781 58.752 19.0938 58.373L19.2109 55.6602ZM24.9531 58.9004V58.7656C24.9531 58.3086 25.0195 57.8848 25.1523 57.4941C25.2852 57.0996 25.4766 56.7578 25.7266 56.4688C25.9766 56.1758 26.2793 55.9492 26.6348 55.7891C26.9902 55.625 27.3887 55.543 27.8301 55.543C28.2754 55.543 28.6758 55.625 29.0312 55.7891C29.3906 55.9492 29.6953 56.1758 29.9453 56.4688C30.1992 56.7578 30.3926 57.0996 30.5254 57.4941C30.6582 57.8848 30.7246 58.3086 30.7246 58.7656V58.9004C30.7246 59.3574 30.6582 59.7812 30.5254 60.1719C30.3926 60.5625 30.1992 60.9043 29.9453 61.1973C29.6953 61.4863 29.3926 61.7129 29.0371 61.877C28.6855 62.0371 28.2871 62.1172 27.8418 62.1172C27.3965 62.1172 26.9961 62.0371 26.6406 61.877C26.2852 61.7129 25.9805 61.4863 25.7266 61.1973C25.4766 60.9043 25.2852 60.5625 25.1523 60.1719C25.0195 59.7812 24.9531 59.3574 24.9531 58.9004ZM26.0371 58.7656V58.9004C26.0371 59.2168 26.0742 59.5156 26.1484 59.7969C26.2227 60.0742 26.334 60.3203 26.4824 60.5352C26.6348 60.75 26.8242 60.9199 27.0508 61.0449C27.2773 61.166 27.541 61.2266 27.8418 61.2266C28.1387 61.2266 28.3984 61.166 28.6211 61.0449C28.8477 60.9199 29.0352 60.75 29.1836 60.5352C29.332 60.3203 29.4434 60.0742 29.5176 59.7969C29.5957 59.5156 29.6348 59.2168 29.6348 58.9004V58.7656C29.6348 58.4531 29.5957 58.1582 29.5176 57.8809C29.4434 57.5996 29.3301 57.3516 29.1777 57.1367C29.0293 56.918 28.8418 56.7461 28.6152 56.6211C28.3926 56.4961 28.1309 56.4336 27.8301 56.4336C27.5332 56.4336 27.2715 56.4961 27.0449 56.6211C26.8223 56.7461 26.6348 56.918 26.4824 57.1367C26.334 57.3516 26.2227 57.5996 26.1484 57.8809C26.0742 58.1582 26.0371 58.4531 26.0371 58.7656ZM36.1797 55.6602V56.5566H33.25V62H32.166V55.6602H36.1797ZM36.7188 58.9004V58.7656C36.7188 58.3086 36.7852 57.8848 36.918 57.4941C37.0508 57.0996 37.2422 56.7578 37.4922 56.4688C37.7422 56.1758 38.0449 55.9492 38.4004 55.7891C38.7559 55.625 39.1543 55.543 39.5957 55.543C40.041 55.543 40.4414 55.625 40.7969 55.7891C41.1562 55.9492 41.4609 56.1758 41.7109 56.4688C41.9648 56.7578 42.1582 57.0996 42.291 57.4941C42.4238 57.8848 42.4902 58.3086 42.4902 58.7656V58.9004C42.4902 59.3574 42.4238 59.7812 42.291 60.1719C42.1582 60.5625 41.9648 60.9043 41.7109 61.1973C41.4609 61.4863 41.1582 61.7129 40.8027 61.877C40.4512 62.0371 40.0527 62.1172 39.6074 62.1172C39.1621 62.1172 38.7617 62.0371 38.4062 61.877C38.0508 61.7129 37.7461 61.4863 37.4922 61.1973C37.2422 60.9043 37.0508 60.5625 36.918 60.1719C36.7852 59.7812 36.7188 59.3574 36.7188 58.9004ZM37.8027 58.7656V58.9004C37.8027 59.2168 37.8398 59.5156 37.9141 59.7969C37.9883 60.0742 38.0996 60.3203 38.248 60.5352C38.4004 60.75 38.5898 60.9199 38.8164 61.0449C39.043 61.166 39.3066 61.2266 39.6074 61.2266C39.9043 61.2266 40.1641 61.166 40.3867 61.0449C40.6133 60.9199 40.8008 60.75 40.9492 60.5352C41.0977 60.3203 41.209 60.0742 41.2832 59.7969C41.3613 59.5156 41.4004 59.2168 41.4004 58.9004V58.7656C41.4004 58.4531 41.3613 58.1582 41.2832 57.8809C41.209 57.5996 41.0957 57.3516 40.9434 57.1367C40.7949 56.918 40.6074 56.7461 40.3809 56.6211C40.1582 56.4961 39.8965 56.4336 39.5957 56.4336C39.2988 56.4336 39.0371 56.4961 38.8105 56.6211C38.5879 56.7461 38.4004 56.918 38.248 57.1367C38.0996 57.3516 37.9883 57.5996 37.9141 57.8809C37.8398 58.1582 37.8027 58.4531 37.8027 58.7656ZM46.3047 55.6602V62H45.2148V55.6602H46.3047ZM48.4316 55.6602V56.5391H43.1289V55.6602H48.4316ZM50.6699 60.2832L53.5938 55.6602H54.6836V62H53.5938V57.377L50.6699 62H49.5918V55.6602H50.6699V60.2832ZM60.6484 55.6602V56.5566H57.4434V55.6602H60.6484ZM57.6016 55.6602V62H56.5176V55.6602H57.6016ZM61.6094 55.6602V62H60.5195V55.6602H61.6094Z" fill="#FAB54D"/>
</svg>
