<svg width="16" height="16" viewBox="0 0 16 16" fill="none" xmlns="http://www.w3.org/2000/svg">
<path fill-rule="evenodd" clip-rule="evenodd" d="M7.99967 2.66659C5.05416 2.66659 2.66634 5.0544 2.66634 7.99992C2.66634 10.9454 5.05416 13.3333 7.99967 13.3333C10.9452 13.3333 13.333 10.9454 13.333 7.99992C13.333 5.0544 10.9452 2.66659 7.99967 2.66659ZM1.33301 7.99992C1.33301 4.31802 4.31778 1.33325 7.99967 1.33325C11.6816 1.33325 14.6663 4.31802 14.6663 7.99992C14.6663 11.6818 11.6816 14.6666 7.99967 14.6666C4.31778 14.6666 1.33301 11.6818 1.33301 7.99992ZM7.99967 4.96655C8.36786 4.96655 8.66634 5.26503 8.66634 5.63322V8.29989C8.66634 8.66808 8.36786 8.96655 7.99967 8.96655C7.63148 8.96655 7.33301 8.66808 7.33301 8.29989V5.63322C7.33301 5.26503 7.63148 4.96655 7.99967 4.96655ZM7.2998 10.2999C7.2998 9.9317 7.59828 9.63322 7.96647 9.63322H8.03288C8.40107 9.63322 8.69954 9.9317 8.69954 10.2999V10.3666C8.69954 10.5434 8.62928 10.713 8.50422 10.838C8.37916 10.963 8.20955 11.0333 8.03271 11.0332L7.96631 11.0332C7.59818 11.0331 7.2998 10.7347 7.2998 10.3665V10.2999Z" fill="#EC1B2E"/>
</svg>
